<svg width="190" height="167" fill="none" xmlns="http://www.w3.org/2000/svg">
<path d="M112 106a50 50 0 1 1-100 0 50 50 0 0 1 100 0Z" fill="url(#a)"/>
<path d="M19.45 115.96c.4 3.29-3.48 6.46-8.66 7.08-5.17.62-9.68-1.55-10.08-4.84-.4-3.29 3.48-6.46 8.66-7.08 5.17-.62 9.69 1.55 10.08 4.84Z" fill="#F5F5F5"/><path d="M180 117a50 50 0 1 1-100 0 50 50 0 0 1 100 0Z" fill="#FFD1A0"/><path d="M188.74 140.69c-1.25 3.07-6.18 3.96-11 1.99-4.83-1.97-7.73-6.06-6.47-9.13 1.25-3.06 6.18-3.95 11-1.98 4.82 1.97 7.72 6.05 6.47 9.12ZM159 50a50 50 0 1 1-100 0 50 50 0 0 1 100 0Z" fill="#423528"/><path d="M167.74 30.85c.74 3.22-2.77 6.8-7.84 7.97-5.08 1.17-9.8-.49-10.55-3.72-.74-3.23 2.77-6.8 7.84-7.97 5.08-1.18 9.8.49 10.55 3.72Z" fill="#332E29"/><defs><linearGradient id="a" x1="94.86" y1="0" x2="94.86" y2="167" gradientUnits="userSpaceOnUse"><stop stop-color="#423528"/><stop offset="1" stop-color="#A88766"/></linearGradient></defs></svg>