<svg aria-hidden="true" style="position: absolute; width: 0; height: 0; overflow: hidden;" version="1.1" xmlns="http://www.w3.org/2000/svg" xmlns:xlink="http://www.w3.org/1999/xlink">
<defs>
<symbol id="icon-logo" viewBox="0 0 36 32">
<path fill="#000" style="fill: var(--color1, #000)" d="M21.461 20.311c0 5.291-4.29 9.581-9.581 9.581s-9.581-4.29-9.581-9.581v0c0-5.291 4.29-9.581 9.581-9.581s9.581 4.29 9.581 9.581v0z"></path>
<path fill="#f5f5f5" style="fill: var(--color2, #f5f5f5)" d="M3.727 22.22c0.077 0.63-0.667 1.238-1.659 1.357-0.991 0.119-1.855-0.297-1.931-0.927s0.667-1.238 1.659-1.357c0.991-0.119 1.857 0.297 1.931 0.927z"></path>
<path fill="#ffd1a0" style="fill: var(--color3, #ffd1a0)" d="M34.491 22.419c0 5.291-4.29 9.581-9.581 9.581s-9.581-4.29-9.581-9.581v0c0-5.291 4.29-9.581 9.581-9.581s9.581 4.29 9.581 9.581v0z"></path>
<path fill="#423528" style="fill: var(--color4, #423528)" d="M36.166 26.959c-0.24 0.588-1.184 0.759-2.108 0.381-0.925-0.378-1.481-1.161-1.24-1.749 0.24-0.586 1.184-0.757 2.108-0.379s1.479 1.159 1.24 1.748zM30.467 9.581c0 5.291-4.29 9.581-9.581 9.581s-9.581-4.29-9.581-9.581v0c0-5.291 4.29-9.581 9.581-9.581s9.581 4.29 9.581 9.581v0z"></path>
<path fill="#332e29" style="fill: var(--color5, #332e29)" d="M32.142 5.911c0.142 0.617-0.531 1.303-1.502 1.527-0.973 0.224-1.878-0.094-2.022-0.713-0.142-0.619 0.531-1.303 1.502-1.527 0.973-0.226 1.878 0.094 2.022 0.713z"></path>
</symbol>
</defs>
</svg>
